<svg enable-background="new 0 0 100 100" viewBox="0 0 100 100" xmlns="http://www.w3.org/2000/svg"><path d="m31.6568317 40.7065887 12.0698338-10.3428917c3.3103828-2.8367367 8.048439-3.2813225 11.8287468-1.1099262l19.9388962 11.4528179-1.1425095 26.6442566-23.879097 2.9155121 3.1028671-14.84692z" fill="#feda6f"/><path d="m50.2795868 40.5725136h-40.5258112c-1.8203096 0-3.2959828 1.4756737-3.2959828 3.2959824v24.950016c0 1.8203049 1.4756732 3.2959366 3.2959828 3.2959366h40.5258102c1.8203087 0 3.2959824-1.4756317 3.2959824-3.2959366v-24.950016c.000001-1.8203087-1.4756727-3.2959824-3.2959814-3.2959824z" fill="#4abba4"/><path d="m6.457793 47.042427h47.117775v5.267955h-47.117775z" fill="#293b44"/><g fill="#ededed"><path d="m10.679484 64.129105h7.296572v2.807335h-7.296572z"/><path d="m22.377632 64.129105h7.296572v2.807335h-7.296572z"/><path d="m34.075783 64.129105h7.296572v2.807335h-7.296572z"/></g><path d="m25.2624817 47.1182556c-5.5030556 2.4159508-3.6436615 13.5070038 6.1345501 10.3250084 3.8001652-1.2366371 6.5753155-3.9370461 9.9753208-4.2202797 6.3454857-.5286026 13.1881943 2.6411018 13.1881943 2.6411018l.330452-18.8385544c-.7223778 1.1199188-8.3035889 2.2854996-16.0004311 4.7501183-2.2884674.7327957-4.6654053 2.0827713-6.8133965 3.182972-1.666151.8534012-6.1343307 1.8609428-6.8146896 2.1596336z" fill="#feda6f"/><path d="m54.9090843 36.7725677-.0180855.252964c.0667115-.1034049.0801125-.1902847.0180855-.252964z" fill="#feda6f"/><path d="m70.735939 36.772595h22.806265v33.493763h-22.806265z" fill="#de594e"/><g fill="#ededed"><path d="m30.7233009 55.3778152-3.6819019.9713821c-.9456062.2494774-1.9144135-.3148499-2.1638908-1.2604561l-.9713821-3.6819c-.2494774-.94561.3148479-1.9144173 1.2604561-2.1638947l3.6819-.9713821c.9456081-.2494774 1.9144154.3148499 2.1638927 1.2604599l.9713821 3.6819c.2494774.9456063-.3148498 1.9144136-1.2604561 2.1638909z"/><path d="m82.1391068 61.0707245c-1.6890869 0-3.0584106 1.3693237-3.0584106 3.0584106s1.3693237 3.0583496 3.0584106 3.0583496 3.0583496-1.3692627 3.0583496-3.0583496-1.3692627-3.0584106-3.0583496-3.0584106z"/></g></svg>